<svg id="visual" viewBox="0 0 900 600" width="900" height="600" xmlns="http://www.w3.org/2000/svg" xmlns:xlink="http://www.w3.org/1999/xlink" version="1.1"><rect x="0" y="0" width="900" height="600" fill="#001220"></rect><defs><linearGradient id="grad1_0" x1="33.3%" y1="100%" x2="100%" y2="0%"><stop offset="20%" stop-color="#001220" stop-opacity="1"></stop><stop offset="80%" stop-color="#001220" stop-opacity="1"></stop></linearGradient></defs><defs><linearGradient id="grad2_0" x1="0%" y1="100%" x2="66.7%" y2="0%"><stop offset="20%" stop-color="#001220" stop-opacity="1"></stop><stop offset="80%" stop-color="#001220" stop-opacity="1"></stop></linearGradient></defs><g transform="translate(900, 600)"><path d="M-486.7 0C-480.4 -63.6 -474 -127.1 -449.7 -186.3C-425.4 -245.4 -383 -300.1 -331.6 -331.6C-280.2 -363.2 -219.8 -371.6 -163 -393.6C-106.2 -415.6 -53.1 -451.2 0 -486.7L0 0Z" fill="#865bc8"></path></g><g transform="translate(0, 0)"><path d="M486.7 0C405.4 31.2 324 62.4 313.2 129.7C302.4 197 362.2 300.4 344.2 344.2C326.2 388 230.3 372.3 160 386.2C89.6 400 44.8 443.4 0 486.7L0 0Z" fill="#865bc8"></path></g></svg>