<svg id="visual" viewBox="0 0 900 600" width="900" height="600" xmlns="http://www.w3.org/2000/svg" xmlns:xlink="http://www.w3.org/1999/xlink" version="1.1"><rect x="0" y="0" width="900" height="600" fill="#001220"></rect><path d="M0 245L15 260.3C30 275.7 60 306.3 90 323.2C120 340 150 343 180 343C210 343 240 340 270 321.5C300 303 330 269 360 254.3C390 239.7 420 244.3 450 253.2C480 262 510 275 540 274.5C570 274 600 260 630 245.8C660 231.7 690 217.3 720 230.7C750 244 780 285 810 300.2C840 315.3 870 304.7 885 299.3L900 294L900 601L885 601C870 601 840 601 810 601C780 601 750 601 720 601C690 601 660 601 630 601C600 601 570 601 540 601C510 601 480 601 450 601C420 601 390 601 360 601C330 601 300 601 270 601C240 601 210 601 180 601C150 601 120 601 90 601C60 601 30 601 15 601L0 601Z" fill="#860be0"></path><path d="M0 341L15 340.8C30 340.7 60 340.3 90 342C120 343.7 150 347.3 180 343.7C210 340 240 329 270 316.8C300 304.7 330 291.3 360 285.7C390 280 420 282 450 298.5C480 315 510 346 540 353.3C570 360.7 600 344.3 630 324C660 303.7 690 279.3 720 283C750 286.7 780 318.3 810 333.5C840 348.7 870 347.3 885 346.7L900 346L900 601L885 601C870 601 840 601 810 601C780 601 750 601 720 601C690 601 660 601 630 601C600 601 570 601 540 601C510 601 480 601 450 601C420 601 390 601 360 601C330 601 300 601 270 601C240 601 210 601 180 601C150 601 120 601 90 601C60 601 30 601 15 601L0 601Z" fill="#8d2bdf"></path><path d="M0 427L15 416.8C30 406.7 60 386.3 90 372.3C120 358.3 150 350.7 180 353.3C210 356 240 369 270 365.7C300 362.3 330 342.7 360 342.5C390 342.3 420 361.7 450 367.3C480 373 510 365 540 366.7C570 368.3 600 379.7 630 387.3C660 395 690 399 720 400.8C750 402.7 780 402.3 810 403.7C840 405 870 408 885 409.5L900 411L900 601L885 601C870 601 840 601 810 601C780 601 750 601 720 601C690 601 660 601 630 601C600 601 570 601 540 601C510 601 480 601 450 601C420 601 390 601 360 601C330 601 300 601 270 601C240 601 210 601 180 601C150 601 120 601 90 601C60 601 30 601 15 601L0 601Z" fill="#933fdd"></path><path d="M0 463L15 465C30 467 60 471 90 467.2C120 463.3 150 451.7 180 453.3C210 455 240 470 270 473.3C300 476.7 330 468.3 360 454.2C390 440 420 420 450 424.2C480 428.3 510 456.7 540 464.7C570 472.7 600 460.3 630 452.2C660 444 690 440 720 445.2C750 450.3 780 464.7 810 473.2C840 481.7 870 484.3 885 485.7L900 487L900 601L885 601C870 601 840 601 810 601C780 601 750 601 720 601C690 601 660 601 630 601C600 601 570 601 540 601C510 601 480 601 450 601C420 601 390 601 360 601C330 601 300 601 270 601C240 601 210 601 180 601C150 601 120 601 90 601C60 601 30 601 15 601L0 601Z" fill="#994fdb"></path><path d="M0 516L15 514.5C30 513 60 510 90 507.8C120 505.7 150 504.3 180 495.3C210 486.3 240 469.7 270 457.2C300 444.7 330 436.3 360 443.7C390 451 420 474 450 489.5C480 505 510 513 540 503.2C570 493.3 600 465.7 630 461.8C660 458 690 478 720 489.5C750 501 780 504 810 494C840 484 870 461 885 449.5L900 438L900 601L885 601C870 601 840 601 810 601C780 601 750 601 720 601C690 601 660 601 630 601C600 601 570 601 540 601C510 601 480 601 450 601C420 601 390 601 360 601C330 601 300 601 270 601C240 601 210 601 180 601C150 601 120 601 90 601C60 601 30 601 15 601L0 601Z" fill="#9e5dd9"></path><path d="M0 510L15 510.5C30 511 60 512 90 510.8C120 509.7 150 506.3 180 511.7C210 517 240 531 270 533.7C300 536.3 330 527.7 360 529.7C390 531.7 420 544.3 450 548C480 551.7 510 546.3 540 548.7C570 551 600 561 630 556.3C660 551.7 690 532.3 720 521C750 509.7 780 506.3 810 513.3C840 520.3 870 537.7 885 546.3L900 555L900 601L885 601C870 601 840 601 810 601C780 601 750 601 720 601C690 601 660 601 630 601C600 601 570 601 540 601C510 601 480 601 450 601C420 601 390 601 360 601C330 601 300 601 270 601C240 601 210 601 180 601C150 601 120 601 90 601C60 601 30 601 15 601L0 601Z" fill="#a36bd7"></path></svg>