<?xml version="1.0" standalone="no"?><svg xmlns="http://www.w3.org/2000/svg" viewBox="0 0 1440 320"><path fill="#0099ff" fill-opacity="1" d="M0,288L26.7,288C53.3,288,107,288,160,277.3C213.3,267,267,245,320,240C373.3,235,427,245,480,256C533.3,267,587,277,640,272C693.3,267,747,245,800,229.3C853.3,213,907,203,960,165.3C1013.3,128,1067,64,1120,64C1173.3,64,1227,128,1280,128C1333.3,128,1387,64,1413,32L1440,0L1440,320L1413.3,320C1386.7,320,1333,320,1280,320C1226.7,320,1173,320,1120,320C1066.7,320,1013,320,960,320C906.7,320,853,320,800,320C746.7,320,693,320,640,320C586.7,320,533,320,480,320C426.7,320,373,320,320,320C266.7,320,213,320,160,320C106.7,320,53,320,27,320L0,320Z"></path></svg>